HIERARCHY
ROOT CG
{
	OFFSET 0.000000 0.000000 27.772259
	CHANNELS 6 Xposition Yposition Zposition Xrotation Yrotation Zrotation
	JOINT Pelvis
	{
		OFFSET 0.000000 0.000000 0.000000
		CHANNELS 3 Xrotation Yrotation Zrotation
		JOINT Spine
		{
			OFFSET -0.000017 -10.490843 -0.495483
			CHANNELS 3 Xrotation Yrotation Zrotation
			JOINT Spine1
			{
				OFFSET -0.000010 -22.678980 0.018061
				CHANNELS 3 Xrotation Yrotation Zrotation
				JOINT Spine2
				{
					OFFSET -0.000010 -22.678967 0.018061
					CHANNELS 3 Xrotation Yrotation Zrotation
					JOINT Spine3
					{
						OFFSET -0.000010 -22.678982 0.018059
						CHANNELS 3 Xrotation Yrotation Zrotation
						JOINT Neck
						{
							OFFSET -0.000012 -22.678986 -1.289251
							CHANNELS 3 Xrotation Yrotation Zrotation
							JOINT Neck1
							{
								OFFSET -0.000007 -16.255905 0.012947
								CHANNELS 3 Xrotation Yrotation Zrotation
								JOINT Head
								{
									OFFSET -0.000005 -10.784607 -0.287502
									CHANNELS 3 Xrotation Yrotation Zrotation
									JOINT Jaw01
									{
										OFFSET 0.000031 7.782959 5.073944
										CHANNELS 3 Xrotation Yrotation Zrotation
										JOINT Jaw02
										{
											OFFSET 0.000004 -34.927139 -18.883980
											CHANNELS 3 Xrotation Yrotation Zrotation
											End Site
											{
												OFFSET -0.000170 8.372803 -38.812450
											}
										}
									}
									JOINT Nose
									{
										OFFSET -0.000002 -25.700912 7.222265
										CHANNELS 3 Xrotation Yrotation Zrotation
										End Site
										{
											OFFSET -0.000090 0.641281 -21.715439
										}
									}
									JOINT L_EyeSocket
									{
										OFFSET 7.352326 -19.832718 14.164183
										CHANNELS 3 Xrotation Yrotation Zrotation
										JOINT L_Eye
										{
											OFFSET -0.000868 -0.001053 0.016003
											CHANNELS 3 Xrotation Yrotation Zrotation
											End Site
											{
												OFFSET -0.001505 -0.001846 0.027969
											}
										}
										JOINT L_Eyelid_Top
										{
											OFFSET -0.001004 -0.002625 0.032516
											CHANNELS 3 Xrotation Yrotation Zrotation
											End Site
											{
												OFFSET -0.013218 0.005753 0.024086
											}
										}
										JOINT L_Eyelid_Bottom
										{
											OFFSET -0.001194 -0.002777 0.035381
											CHANNELS 3 Xrotation Yrotation Zrotation
											End Site
											{
												OFFSET -0.010032 0.008636 -0.024754
											}
										}
									}
									JOINT R_EyeSocket
									{
										OFFSET -7.352252 -19.832748 14.164206
										CHANNELS 3 Xrotation Yrotation Zrotation
										JOINT R_Eye
										{
											OFFSET 0.000875 -0.001068 0.015991
											CHANNELS 3 Xrotation Yrotation Zrotation
											End Site
											{
												OFFSET 0.001505 -0.001846 0.027962
											}
										}
										JOINT R_Eyelid_Top
										{
											OFFSET 0.001021 -0.002625 0.032516
											CHANNELS 3 Xrotation Yrotation Zrotation
											End Site
											{
												OFFSET 0.013214 0.005753 0.024078
											}
										}
										JOINT R_Eyelid_Bottom
										{
											OFFSET 0.001170 -0.002762 0.035366
											CHANNELS 3 Xrotation Yrotation Zrotation
											End Site
											{
												OFFSET 0.010029 0.008636 -0.024746
											}
										}
									}
								}
								JOINT Neck_Fat
								{
									OFFSET 0.000044 -9.595100 -17.491512
									CHANNELS 3 Xrotation Yrotation Zrotation
									End Site
									{
										OFFSET -0.000036 15.369423 -0.000007
									}
								}
							}
						}
						JOINT L_Clavicle
						{
							OFFSET 4.567107 -11.666092 -3.750029
							CHANNELS 3 Xrotation Yrotation Zrotation
							JOINT L_UpperArm
							{
								OFFSET 20.725666 -0.000053 -0.000032
								CHANNELS 3 Xrotation Yrotation Zrotation
								JOINT L_Forearm
								{
									OFFSET 5.265112 -0.585754 -20.155697
									CHANNELS 3 Xrotation Yrotation Zrotation
									JOINT L_Hand
									{
										OFFSET 2.653017 -10.877708 -16.383667
										CHANNELS 3 Xrotation Yrotation Zrotation
										JOINT L_Finger0
										{
											OFFSET -4.206146 -4.328911 -5.034346
											CHANNELS 3 Xrotation Yrotation Zrotation
											JOINT L_Finger01
											{
												OFFSET 0.084272 -1.788536 -4.181065
												CHANNELS 3 Xrotation Yrotation Zrotation
												End Site
												{
													OFFSET 3.261885 3.094673 -0.685818
												}
											}
										}
										JOINT L_Finger1
										{
											OFFSET -1.039112 -6.775742 -3.499998
											CHANNELS 3 Xrotation Yrotation Zrotation
											JOINT L_Finger11
											{
												OFFSET 1.320335 -3.040672 -6.425793
												CHANNELS 3 Xrotation Yrotation Zrotation
												End Site
												{
													OFFSET -1.244579 6.832077 -2.013330
												}
											}
										}
										JOINT L_Finger2
										{
											OFFSET 2.531296 -5.656487 -3.286415
											CHANNELS 3 Xrotation Yrotation Zrotation
											JOINT L_Finger21
											{
												OFFSET 1.991665 -2.402016 -5.957748
												CHANNELS 3 Xrotation Yrotation Zrotation
												End Site
												{
													OFFSET -2.793068 5.800873 -1.944178
												}
											}
										}
										JOINT L_Finger3
										{
											OFFSET 5.474075 -3.302338 -2.655975
											CHANNELS 3 Xrotation Yrotation Zrotation
											JOINT L_Finger31
											{
												OFFSET 2.026943 -1.267532 -5.961166
												CHANNELS 3 Xrotation Yrotation Zrotation
												End Site
												{
													OFFSET -4.375172 4.343658 -1.800320
												}
											}
										}
										JOINT L_Finger4
										{
											OFFSET 4.825745 1.085899 -2.321970
											CHANNELS 3 Xrotation Yrotation Zrotation
											JOINT L_Finger41
											{
												OFFSET 3.358261 -1.829651 -3.744434
												CHANNELS 3 Xrotation Yrotation Zrotation
												End Site
												{
													OFFSET -3.843296 2.955200 -2.267633
												}
											}
										}
									}
								}
							}
						}
						JOINT R_Clavicle
						{
							OFFSET -4.567111 -11.666092 -3.750036
							CHANNELS 3 Xrotation Yrotation Zrotation
							JOINT R_UpperArm
							{
								OFFSET -20.725670 -0.000031 0.000038
								CHANNELS 3 Xrotation Yrotation Zrotation
								JOINT R_Forearm
								{
									OFFSET -5.265285 -0.585762 -20.155655
									CHANNELS 3 Xrotation Yrotation Zrotation
									JOINT R_Hand
									{
										OFFSET -2.653147 -10.877739 -16.383663
										CHANNELS 3 Xrotation Yrotation Zrotation
										JOINT R_Finger0
										{
											OFFSET 4.206116 -4.328888 -5.034388
											CHANNELS 3 Xrotation Yrotation Zrotation
											JOINT R_Finger01
											{
												OFFSET -0.084324 -1.788544 -4.181051
												CHANNELS 3 Xrotation Yrotation Zrotation
												End Site
												{
													OFFSET -3.261890 3.094666 -0.685791
												}
											}
										}
										JOINT R_Finger1
										{
											OFFSET 1.039101 -6.775711 -3.499994
											CHANNELS 3 Xrotation Yrotation Zrotation
											JOINT R_Finger11
											{
												OFFSET -1.320374 -3.040672 -6.425779
												CHANNELS 3 Xrotation Yrotation Zrotation
												End Site
												{
													OFFSET 1.244556 6.832077 -2.013342
												}
											}
										}
										JOINT R_Finger2
										{
											OFFSET -2.531307 -5.656464 -3.286409
											CHANNELS 3 Xrotation Yrotation Zrotation
											JOINT R_Finger21
											{
												OFFSET -1.991707 -2.402016 -5.957708
												CHANNELS 3 Xrotation Yrotation Zrotation
												End Site
												{
													OFFSET 2.793037 5.800858 -1.944197
												}
											}
										}
										JOINT R_Finger3
										{
											OFFSET -5.474091 -3.302330 -2.655947
											CHANNELS 3 Xrotation Yrotation Zrotation
											JOINT R_Finger31
											{
												OFFSET -2.026993 -1.267532 -5.961157
												CHANNELS 3 Xrotation Yrotation Zrotation
												End Site
												{
													OFFSET 4.375156 4.343674 -1.800358
												}
											}
										}
										JOINT R_Finger4
										{
											OFFSET -4.825756 1.085922 -2.321926
											CHANNELS 3 Xrotation Yrotation Zrotation
											JOINT R_Finger41
											{
												OFFSET -3.358307 -1.829651 -3.744390
												CHANNELS 3 Xrotation Yrotation Zrotation
												End Site
												{
													OFFSET 3.843273 2.955208 -2.267666
												}
											}
										}
									}
								}
							}
						}
					}
				}
			}
		}
		JOINT Tail01
		{
			OFFSET -0.000010 10.922326 -0.017508
			CHANNELS 3 Xrotation Yrotation Zrotation
			JOINT Tail02
			{
				OFFSET -0.000022 21.986111 0.000013
				CHANNELS 3 Xrotation Yrotation Zrotation
				JOINT Tail03
				{
					OFFSET -0.000022 21.986118 0.000002
					CHANNELS 3 Xrotation Yrotation Zrotation
					JOINT Tail04
					{
						OFFSET -0.000022 21.986122 0.000004
						CHANNELS 3 Xrotation Yrotation Zrotation
						JOINT Tail05
						{
							OFFSET -0.000022 21.986099 0.000010
							CHANNELS 3 Xrotation Yrotation Zrotation
							JOINT Tail06
							{
								OFFSET -0.000022 21.986099 0.000006
								CHANNELS 3 Xrotation Yrotation Zrotation
								JOINT Tail07
								{
									OFFSET -0.000022 21.986099 0.000000
									CHANNELS 3 Xrotation Yrotation Zrotation
									JOINT Tail08
									{
										OFFSET -0.000022 21.984848 0.000050
										CHANNELS 3 Xrotation Yrotation Zrotation
										JOINT Tail09
										{
											OFFSET -0.000025 21.926025 -1.606211
											CHANNELS 3 Xrotation Yrotation Zrotation
											JOINT Tail10
											{
												OFFSET -0.000027 21.750092 -3.203882
												CHANNELS 3 Xrotation Yrotation Zrotation
												End Site
												{
													OFFSET -0.000036 4.767395 21.461668
												}
											}
										}
									}
								}
							}
						}
					}
				}
			}
		}
		JOINT L_Thigh
		{
			OFFSET 24.788780 0.000021 -0.000034
			CHANNELS 3 Xrotation Yrotation Zrotation
			JOINT L_Calf
			{
				OFFSET 4.720837 4.161326 -21.049969
				CHANNELS 3 Xrotation Yrotation Zrotation
				JOINT L_Foot
				{
					OFFSET 2.154160 21.114433 -11.949743
					CHANNELS 3 Xrotation Yrotation Zrotation
					JOINT L_Toe0
					{
						OFFSET 4.557564 9.251841 -8.735286
						CHANNELS 3 Xrotation Yrotation Zrotation
						End Site
						{
							OFFSET 4.555542 -12.646044 1.018752
						}
					}
					JOINT L_Toe1
					{
						OFFSET 2.346291 5.845602 -11.687160
						CHANNELS 3 Xrotation Yrotation Zrotation
						End Site
						{
							OFFSET 5.347954 -12.298279 1.365644
						}
					}
					JOINT L_Toe2
					{
						OFFSET -0.356020 3.902458 -12.541145
						CHANNELS 3 Xrotation Yrotation Zrotation
						End Site
						{
							OFFSET 3.916235 -12.806129 1.542549
						}
					}
					JOINT L_Toe3
					{
						OFFSET -4.603447 3.183935 -12.435249
						CHANNELS 3 Xrotation Yrotation Zrotation
						End Site
						{
							OFFSET 3.810858 -12.587427 2.957583
						}
					}
					JOINT L_Toe4
					{
						OFFSET -7.144358 6.231495 -10.072764
						CHANNELS 3 Xrotation Yrotation Zrotation
						End Site
						{
							OFFSET 3.810858 -12.587425 2.957585
						}
					}
				}
			}
		}
		JOINT R_Thigh
		{
			OFFSET -24.788780 -0.000024 0.000034
			CHANNELS 3 Xrotation Yrotation Zrotation
			JOINT R_Calf
			{
				OFFSET -4.720922 4.161324 -21.049952
				CHANNELS 3 Xrotation Yrotation Zrotation
				JOINT R_Foot
				{
					OFFSET -2.154238 21.114414 -11.949730
					CHANNELS 3 Xrotation Yrotation Zrotation
					JOINT R_Toe0
					{
						OFFSET -4.557598 9.251823 -8.735270
						CHANNELS 3 Xrotation Yrotation Zrotation
						End Site
						{
							OFFSET -4.555508 -12.646051 1.018756
						}
					}
					JOINT R_Toe1
					{
						OFFSET -2.346325 5.845589 -11.687157
						CHANNELS 3 Xrotation Yrotation Zrotation
						End Site
						{
							OFFSET -5.347919 -12.298286 1.365654
						}
					}
					JOINT R_Toe2
					{
						OFFSET 0.355980 3.902462 -12.541145
						CHANNELS 3 Xrotation Yrotation Zrotation
						End Site
						{
							OFFSET -3.916199 -12.806131 1.542559
						}
					}
					JOINT R_Toe3
					{
						OFFSET 4.603411 3.183941 -12.435266
						CHANNELS 3 Xrotation Yrotation Zrotation
						End Site
						{
							OFFSET -3.810825 -12.587429 2.957591
						}
					}
					JOINT R_Toe4
					{
						OFFSET 7.144323 6.231503 -10.072779
						CHANNELS 3 Xrotation Yrotation Zrotation
						End Site
						{
							OFFSET -3.810825 -12.587433 2.957584
						}
					}
				}
			}
		}
	}
}
MOTION
Frames: 4
Frame Time: 0.033333
12.000000 -0.000001 36.000000 -0.000000 0.000000 -0.000051 0.000001 0.000000 13.456158 -0.001115 -0.004661 -13.456032 -0.791042 -3.077545 -14.399495 -1.634504 -2.963910 -14.896812 -2.909235 -3.209085 -16.889347 -0.000020 0.000049 -17.833025 -0.000006 0.000095 -17.344033 -5.800276 8.159527 -1.535186 -17.253316 -0.000021 0.000025 0.000012 0.000000 0.000000 0.000000 0.000000 -0.000007 -0.000005 0.000007 -0.000018 0.000129 -0.000081 0.000013 0.000004 -0.000002 0.000004 0.000005 -0.000004 0.000010 0.000001 0.000000 -0.000007 0.000128 0.000081 -0.000027 0.000009 -0.000007 0.000002 -0.000004 0.000003 -0.000001 0.000001 0.000006 0.000002 0.000600 13.870082 10.681610 54.243843 -24.491464 10.423202 -20.478282 4.129701 -4.798046 -7.219642 9.244069 -27.409874 2.328267 12.759710 -5.730968 -4.410617 8.246330 -5.000944 -10.799420 -2.175240 -1.336714 -10.799430 -2.175237 -1.336715 -9.830853 -4.972016 -1.635977 -9.830844 -4.972016 -1.635972 -7.702337 -7.928278 -1.415338 -7.702371 -7.928291 -1.415326 -6.406134 -8.969661 -1.696727 -6.406137 -8.969673 -1.696723 0.001459 -18.440587 -11.352642 111.664461 41.456059 -51.226753 -6.365950 -1.090082 1.637060 5.371210 10.091078 6.229449 26.724915 11.483847 -4.974266 11.527490 7.981972 -2.113068 17.246275 -3.896008 -1.232445 12.357003 -2.755614 -1.002746 15.615341 -8.341596 -0.801850 11.175579 -5.957516 -0.806321 12.226937 -12.903347 -0.032135 8.717971 -9.246340 -0.306836 10.015272 -14.617144 -0.636689 7.147583 -10.462409 -0.717911 1.030663 -4.887315 12.268860 0.660756 0.543301 8.801101 1.083183 0.504146 15.532590 0.912093 0.493100 14.431201 0.549996 0.514780 10.072139 0.283797 0.534247 6.444923 0.118866 0.546382 3.827991 0.070017 0.720636 2.173957 -0.177987 0.276264 -2.019575 -0.490460 0.048337 -4.996495 20.112079 1.529996 8.343646 13.302957 0.723977 2.990211 40.027927 20.156906 8.247844 14.852689 6.555537 4.804983 14.878956 7.495080 3.294763 16.253451 5.330667 0.860194 16.540714 4.471536 -1.840441 16.255749 3.122914 -5.011555 39.350161 6.218482 12.647061 -2.981519 0.065718 0.686957 40.443094 21.736840 -4.698639 -0.000013 0.000006 -0.000002 0.000002 0.000005 -0.000005 0.000002 -0.000002 -0.000001 0.000000 0.000004 -0.000005 -0.000009 0.000005 -0.000001 
13.865177 -0.000002 36.000000 -0.000000 0.000000 -0.000051 0.000000 0.000000 12.439530 -0.001199 -0.004640 -14.489719 -0.763021 -2.930576 -14.609110 -1.580012 -2.823833 -14.835702 -2.690632 -3.074291 -15.914887 -0.000019 0.000049 -17.223729 -0.000005 0.000097 -16.384341 -5.230832 7.985791 -1.646653 -17.210977 -0.000021 0.000024 0.000010 0.000000 -0.000001 0.000000 0.000000 -0.000007 -0.000006 0.000008 -0.000022 0.000130 -0.000081 0.000011 0.000005 -0.000001 -0.000001 0.000004 -0.000005 0.000007 0.000000 0.000000 -0.000007 0.000128 0.000082 -0.000034 0.000007 -0.000009 -0.000002 -0.000005 0.000003 -0.000001 -0.000000 0.000007 0.000001 0.000938 13.987433 10.930434 56.639057 -24.278126 13.871806 -17.243327 3.363031 -4.138059 -3.911284 9.320974 -26.784618 3.835908 11.042290 -5.339984 -3.500191 7.213803 -4.701256 -9.396430 -1.909069 -1.141831 -9.396739 -1.908160 -1.140628 -8.548058 -4.342148 -1.369536 -8.546033 -4.344688 -1.375567 -6.688932 -6.911579 -1.165101 -6.687089 -6.912805 -1.170423 -5.554388 -7.819028 -1.418182 -5.554399 -7.819036 -1.418170 0.001315 -19.060717 -13.025402 112.625462 43.053715 -50.934575 -5.478996 -0.927071 1.415901 6.511612 8.315024 6.697756 24.751753 9.891519 -3.828889 10.732027 7.268254 -1.680292 15.521601 -3.492660 -1.164462 11.277520 -2.506732 -0.938989 14.048856 -7.498841 -0.818996 10.197949 -5.431544 -0.782300 10.984390 -11.614510 -0.149250 7.950558 -8.437130 -0.336558 8.997885 -13.152570 -0.689852 6.520418 -9.544868 -0.707270 1.042844 -4.883037 12.416084 0.650447 0.931665 9.450327 0.884036 0.867985 15.802039 0.634878 0.842342 15.014387 0.290240 0.868426 11.208730 0.054326 0.896558 7.962749 -0.084557 0.917804 5.510443 0.014910 1.211555 3.643397 0.217788 0.891021 -0.557269 0.495723 0.812262 -3.828048 21.270577 1.735404 7.110036 12.119663 0.631543 2.731566 39.606467 19.070276 8.733910 14.992731 6.617626 4.842185 15.021194 7.567128 3.309384 16.407607 5.381294 0.858555 16.697938 4.512235 -1.860561 16.411056 3.144244 -5.062637 37.724627 6.350517 10.989071 -1.024970 0.026624 0.235783 41.201398 19.587958 -3.106214 -0.000013 0.000004 -0.000004 0.000001 0.000007 -0.000005 0.000029 0.000111 -0.000011 0.000000 0.000001 0.000001 -0.000007 0.000012 -0.000004 
15.274810 -0.000002 36.000000 -0.000000 0.000000 -0.000051 0.000000 0.000000 10.455601 -0.001206 -0.004638 -14.580868 -0.736527 -2.783730 -14.858911 -1.526879 -2.683953 -14.797369 -2.474057 -2.936566 -14.935508 -0.000018 0.000048 -16.630300 -0.000005 0.000096 -15.402345 -4.680420 7.780362 -1.762287 -17.165964 -0.000021 0.000024 0.000010 -0.000000 0.000001 0.000000 0.000000 -0.000007 -0.000005 0.000007 -0.000017 0.000130 -0.000081 0.000013 0.000002 -0.000005 0.000003 0.000005 -0.000004 0.000012 0.000000 0.000000 -0.000003 0.000128 0.000082 -0.000025 0.000004 -0.000012 0.000005 -0.000003 0.000004 0.000002 -0.000000 0.000006 0.000000 0.000897 14.084170 11.199168 58.929964 -23.937337 17.466331 -13.780111 2.586469 -3.386799 -0.227470 9.519725 -26.224510 5.509314 9.157832 -4.851498 -2.468489 6.058093 -4.341816 -7.816451 -1.603327 -0.928692 -7.816934 -1.601461 -0.927559 -7.104051 -3.628775 -1.095485 -7.102382 -3.630790 -1.099257 -5.551773 -5.761149 -0.916680 -5.550270 -5.763195 -0.916678 -4.607245 -6.515148 -1.127085 -4.603626 -6.517282 -1.125702 0.001133 -19.795886 -14.939842 114.067246 44.859668 -51.114332 -4.502128 -0.751642 1.169617 7.665789 6.443653 7.291395 22.643619 8.103020 -2.649380 9.813270 6.433704 -1.187344 13.573195 -3.038904 -1.071818 10.021487 -2.218742 -0.858934 12.279414 -6.550847 -0.818302 9.061264 -4.820225 -0.743044 9.586008 -10.163633 -0.254292 7.060139 -7.495247 -0.357304 7.858515 -11.497185 -0.717801 5.792518 -8.477556 -0.682147 1.056944 -4.880327 12.581104 0.654582 1.220771 10.145672 0.745487 1.138411 16.088531 0.442970 1.099408 15.574433 0.109914 1.124821 12.295625 -0.110391 1.157110 9.425671 -0.239834 1.184437 7.160822 -0.041531 1.601464 5.174910 0.507347 1.426050 1.032704 1.240931 1.546318 -2.481124 22.492423 2.273345 6.607227 10.816459 0.535976 2.444669 39.279803 17.878322 9.310619 15.152790 6.701971 4.885531 15.179575 7.662832 3.341733 16.586643 5.442278 0.861831 16.882184 4.556047 -1.891317 16.594609 3.162295 -5.121129 35.946288 7.096226 10.024507 0.993590 -0.029838 -0.228100 42.352784 17.495963 -1.505278 -0.000007 -0.000007 -0.000008 -0.000000 0.000008 -0.000007 0.000124 0.000388 -0.000048 -0.000002 0.000006 -0.000002 -0.000012 0.000012 -0.000006 
16.764982 -0.000002 36.000000 -0.000000 0.000000 -0.000051 0.000000 0.000000 8.338930 -0.001202 -0.004638 -14.534684 -0.709570 -2.636178 -15.114083 -1.473029 -2.543329 -14.762165 -2.260951 -2.794945 -13.959465 -0.000017 0.000049 -16.040230 -0.000005 0.000096 -14.417389 -4.151039 7.542432 -1.870496 -17.117863 -0.000021 0.000025 0.000010 0.000000 0.000001 -0.000000 0.000000 -0.000007 -0.000005 0.000007 -0.000020 0.000129 -0.000080 0.000011 0.000004 -0.000003 0.000002 0.000003 -0.000002 0.000009 0.000001 0.000000 -0.000007 0.000128 0.000082 -0.000028 0.000004 -0.000009 -0.000002 -0.000003 0.000004 0.000000 -0.000000 0.000007 -0.000000 0.000772 14.172472 11.476036 61.156319 -23.479247 21.072997 -10.228197 1.840365 -2.571390 3.627604 9.788530 -25.692294 7.260711 7.201319 -4.287940 -1.373674 4.849823 -3.939689 -6.153036 -1.274507 -0.712439 -6.153545 -1.272027 -0.712292 -5.586177 -2.870054 -0.829026 -5.585852 -2.871204 -0.827862 -4.357667 -4.553959 -0.678699 -4.360005 -4.546538 -0.674571 -3.612181 -5.143478 -0.842196 -3.611285 -5.140445 -0.841735 0.002936 -20.570926 -16.945301 115.790626 46.684893 -51.596362 -3.480256 -0.572787 0.909034 8.838660 4.533087 7.966816 20.503729 6.220950 -1.503561 8.857937 5.550919 -0.683746 11.535331 -2.567558 -0.957563 8.703186 -1.918478 -0.768168 10.432045 -5.556498 -0.789269 7.868976 -4.179662 -0.688820 8.133291 -8.635328 -0.329373 6.128012 -6.506600 -0.363191 6.665013 -9.769180 -0.704588 5.030165 -7.357955 -0.641157 1.075682 -4.878096 12.796972 0.707013 1.220885 10.947437 0.766369 1.138371 16.388445 0.469247 1.094443 16.073172 0.140746 1.110863 13.261471 -0.092611 1.136716 10.762187 -0.249349 1.160589 8.759888 -0.064347 1.702777 6.921552 0.506199 1.707471 3.035796 1.283722 2.135852 -0.571881 23.739233 2.934113 6.093440 9.434539 0.441826 2.138266 38.975122 16.592109 10.032354 15.626780 6.934310 5.013335 15.660224 7.912113 3.414669 17.114385 5.617233 0.863863 17.421955 4.691336 -1.973810 17.124601 3.241974 -5.300789 34.087142 7.905775 9.158176 3.056552 -0.104408 -0.699958 43.855873 15.521822 0.057944 -0.000004 -0.000010 -0.000012 0.000004 0.000006 -0.000007 0.000247 0.000802 -0.000101 0.000001 -0.000002 -0.000000 -0.000010 0.000005 -0.000007 
